# xmcd
#
# Track frame offsets:
#  150
#  12068
#  21465
#  33842
#  47526
#  58954
#  79698
#  98031
#  121018
#  136699
#  151035
#  165322
#  183811
#  196470
#  211964
#  227541
#  238261
#  258680
#  278991
#
# Disc length: 3919 seconds
#
# Revision: 0
# Processed by: cddbd v1.5.2PL0 Copyright (c) Steve Scherf et al.
# Submitted via: AltoMP3_Maker 3.0
#
DISCID=ef0f4d13
DTITLE=Anthologies - Country Rock - Truckers, Kickers, Cowboy Angels, Vol. 3, disc 2
DYEAR=1900
DGENRE=
TTITLE0=Linda Ronstadt - He Darked the Sun
TTITLE1=Flying Burrito Bros - God's Own Singer
TTITLE2=Swampwater - Big Bayou
TTITLE3=The Band - The W.S. Walcott Medicine Show
TTITLE4=David Alan Coe - Tobacco Road
TTITLE5=Goose Creek Symphony - Charlie's Tune
TTITLE6=Country Funk - Really My Friend
TTITLE7=Grateful Dead - Truckin'
TTITLE8=Jefferson Airplane - A Song for All Seasons
TTITLE9=Morning - Tell Me a Story
TTITLE10=Michael Nesmith and First Nat'l Band - Silver Moon
TTITLE11=Poco - Hurry Up
TTITLE12=Townes Van Zandt - Where I Lead Me
TTITLE13=Rusty Kershaw - The Country Boy
TTITLE14=Wildweeds - Mare, Take Me Home
TTITLE15=Jesse Winchester - Snow
TTITLE16=Kris Kristofferson - Sunday Morning Coming Down
TTITLE17=Janis Joplin - Me and Bobby McGee
TTITLE18=Townes Van Zandt - Delta Mama Blues
EXTD=
EXTT0=
EXTT1=
EXTT2=
EXTT3=
EXTT4=
EXTT5=
EXTT6=
EXTT7=
EXTT8=
EXTT9=
EXTT10=
EXTT11=
EXTT12=
EXTT13=
EXTT14=
EXTT15=
EXTT16=
EXTT17=
EXTT18=
PLAYORDER=
